<?xml version="1.0" encoding="utf-8"?>
<!-- Generator: Adobe Illustrator 27.5.0, SVG Export Plug-In . SVG Version: 6.00 Build 0)  -->
<svg version="1.1" id="Layer_1" xmlns="http://www.w3.org/2000/svg" xmlns:xlink="http://www.w3.org/1999/xlink" x="0px" y="0px"
	 viewBox="0 0 16 16" style="enable-background:new 0 0 16 16;" xml:space="preserve">
<style type="text/css">
	
		.st0{clip-path:url(#SVGID_00000047744159283949335100000004254373198482367105_);fill:url(#SVGID_00000170278102121873197220000000135433088788519313_);}
</style>
<g>
	<defs>
		<path id="SVGID_1_" d="M8.7,4.5c0,1.2,1.4,1.5,3,1.7c1.5,0.2,2.9,0.5,4,1.2C15.6,6.1,15.2,5,14.6,4c-0.6-0.7-1.7-1.3-3.1-1.3
			C9.6,2.7,8.7,3.5,8.7,4.5 M0.3,8.5c0.2,3.8,3.4,7,7.2,7.2c1.4,0.1,2.7-0.2,3.9-0.8c-2.5,0-4.5-0.7-5.6-2.7
			c-0.2-0.3-0.1-0.8,0.3-0.9l1-0.5c0.3-0.2,0.7-0.1,0.9,0.2c0.7,1.1,2.1,1.6,3.6,1.6c1.6,0,3.1-0.6,3.1-2c0-1.3-1.3-1.8-3.1-2
			C8.7,8.2,6.2,7.5,6.2,4.4C6.2,2.1,8,1,10,0.6C9.4,0.4,8.7,0.3,8,0.3C3.6,0.3,0.1,4,0.3,8.5"/>
	</defs>
	<clipPath id="SVGID_00000040533367591131651120000007597980080107187072_">
		<use xlink:href="#SVGID_1_"  style="overflow:visible;"/>
	</clipPath>
	
		<linearGradient id="SVGID_00000152238125538167179510000013062479410369476484_" gradientUnits="userSpaceOnUse" x1="-311.1689" y1="139.642" x2="-311.0981" y2="139.642" gradientTransform="matrix(-151.308 151.308 151.308 151.308 -68198.0547 25956.0469)">
		<stop  offset="0" style="stop-color:#3DBAEB"/>
		<stop  offset="1" style="stop-color:#1F56A6"/>
	</linearGradient>
	
		<polygon style="clip-path:url(#SVGID_00000040533367591131651120000007597980080107187072_);fill:url(#SVGID_00000152238125538167179510000013062479410369476484_);" points="
		23.4,8 7.9,23.5 -7.6,8 7.9,-7.5 	"/>
</g>
</svg>
